# xmcd
#
# Track frame offsets: 
#        150
#        15337
#        30780
#        45330
#        65145
#        77067
#        94322
#        110412
#        127060
#        142135
#        154500
#        172425
#        188100
#        201300
#        217562
#        234367
#        252375
#        267907
#        285602
#        306125
#        319787
#        335502
#
# Disc length: 4639 seconds
#
# Revision: 0
# Processed by: cddbd v1.5.2PL0 Copyright (c) Steve Scherf et al.
# Submitted via: ExactAudioCopy v1.1
#
DISCID=39121d16
DTITLE=Various Artist - Complete Stax Volt Soul Singles Vol. 3 (promo sampler
DTITLE=)
DYEAR=1994
DGENRE=Soul
TTITLE0=Frederick Knight - I've Been Lonely For So Long
TTITLE1=The Dramatics - In The Rain
TTITLE2=The Staple Singers - I'll Take You There
TTITLE3=Isaac Hayes and David Porter - Ain't That Loving You
TTITLE4=Rufus Thomas - 6-3-8
TTITLE5=Mel and Tim - Starting All Over Again
TTITLE6=The Temprees - Dedicated To The One I Love
TTITLE7=Albert King - Breaking Up Somebody's Home
TTITLE8=Major Lance - Ain't No Sweat
TTITLE9=Hot Sauce - What Do You See In Her?
TTITLE10=William Bell - Lovin' On Borrowed Time
TTITLE11=Johnnie Taylor - Cheapter To Keep Her
TTITLE12=The Emotions - Peace Be Still
TTITLE13=The Soul Children - I'll Be The Other Woman
TTITLE14=Inez Foxx - Circuit's Overloaded
TTITLE15=Little Milton - Behind Closed Doors
TTITLE16=Eddie Floyd - Soul Street
TTITLE17=Shirley Brown - Woman To Woman
TTITLE18=Bessie Banks - Try To Leave If You Can
TTITLE19=Barbara and Joe - You're Astounding
TTITLE20=John Gary Williams - Come What May
TTITLE21=The Bar-Kays - Holy Ghost (Part 1)
EXTD=
EXTT0=
EXTT1=
EXTT2=
EXTT3=
EXTT4=
EXTT5=
EXTT6=
EXTT7=
EXTT8=
EXTT9=
EXTT10=
EXTT11=
EXTT12=
EXTT13=
EXTT14=
EXTT15=
EXTT16=
EXTT17=
EXTT18=
EXTT19=
EXTT20=
EXTT21=
PLAYORDER=
